<svg width="68" height="69" viewBox="0 0 68 69" fill="none" xmlns="http://www.w3.org/2000/svg">
<path d="M46.4 40.7001L0 68.2001L27.5 21.8L46.4 40.7001Z" fill="#00BBF3"/>
<path d="M37.8 59.2001C53.7058 59.2001 66.6 46.3059 66.6 30.4001C66.6 14.4943 53.7058 1.6001 37.8 1.6001C21.8942 1.6001 9 14.4943 9 30.4001C9 46.3059 21.8942 59.2001 37.8 59.2001Z" fill="#00BBF3" stroke="white" stroke-width="2" stroke-miterlimit="10"/>
<path d="M38.0003 16.6667C39.0612 16.6667 40.0786 17.0882 40.8288 17.8383C41.5789 18.5885 42.0003 19.6059 42.0003 20.6667V28.6667C42.0003 29.7276 41.5789 30.745 40.8288 31.4952C40.0786 32.2453 39.0612 32.6667 38.0003 32.6667C36.9395 32.6667 35.922 32.2453 35.1719 31.4952C34.4218 30.745 34.0003 29.7276 34.0003 28.6667V20.6667C34.0003 19.6059 34.4218 18.5885 35.1719 17.8383C35.922 17.0882 36.9395 16.6667 38.0003 16.6667V16.6667ZM47.3337 28.6667C47.3337 33.3734 43.8537 37.2534 39.3337 37.9067V42.0001H36.667V37.9067C32.147 37.2534 28.667 33.3734 28.667 28.6667H31.3337C31.3337 30.4349 32.036 32.1306 33.2863 33.3808C34.5365 34.631 36.2322 35.3334 38.0003 35.3334C39.7684 35.3334 41.4641 34.631 42.7144 33.3808C43.9646 32.1306 44.667 30.4349 44.667 28.6667H47.3337Z" fill="white"/>
</svg>
