<svg width="647" height="591" viewBox="0 0 647 591" fill="none" xmlns="http://www.w3.org/2000/svg">
<path d="M252.801 514.8L99.7008 519.8V471.5H1.80078V416.9H99.7008V177.5H29.5008V132.9H99.7008V23.7L608.401 221.9L594.301 249.4L644.601 270.9L450.101 589.2L252.801 514.8Z" fill="#FFF3E5"/>
<path d="M100.7 25.2L607 222.4L593 249.9L643.2 271.3L449.7 588L253 513.8L100.7 518.7V470.4H2.90039V417.8H100.7V176.5H30.5004V133.9H100.7V25.2ZM98.7004 22.3V25.2V131.9H30.5004H28.5004V133.9V176.5V178.5H30.5004H98.7004V415.9H2.90039H0.900391V417.9V470.5V472.5H2.90039H98.7004V518.8V520.9L100.8 520.8L252.7 515.9L449 589.9L450.5 590.5L451.4 589.1L644.9 272.5L646.1 270.5L644 269.6L595.8 249L608.9 223.4L609.9 221.4L607.8 220.6L101.4 23.3L98.7004 22.3Z" fill="white"/>
<path d="M121.5 178.5H105.5V224.5H121.5V178.5Z" fill="#C6C4B7"/>
<path d="M283.901 282.2H190.301V291.5H283.901V282.2Z" fill="#C6C4B7"/>
<path d="M512.401 251.2H451.301V260.3H512.401V251.2Z" fill="#C6C4B7"/>
<path d="M292.301 417.8H238.601V429.1H292.301V417.8Z" fill="#C6C4B7"/>
<path d="M400.501 399.6L397.001 416.6L388.601 414.9C383.901 413.9 379.301 417 378.401 421.7C377.401 426.4 380.501 431 385.201 431.9L393.601 433.6L397.601 434.4L406.101 436.2L407.901 427.7L413.101 402.2L400.501 399.6Z" fill="#C6C4B7"/>
<path d="M370 465.5H323V475.9H370V465.5Z" fill="#C6C4B7"/>
<path d="M188.499 59.3999L100.699 25.2V78.3999H188.499V59.3999Z" fill="#9BCECE" stroke="white" stroke-width="2" stroke-miterlimit="10" stroke-linecap="round" stroke-linejoin="round"/>
<path d="M182.2 96.0999H120.5V125.7L182.2 144.5V96.0999Z" fill="#9BCECE" stroke="white" stroke-width="2" stroke-miterlimit="10" stroke-linecap="round" stroke-linejoin="round"/>
<path d="M355.6 162.5C372.4 168.3 388.2 175.6 400.6 185L421.1 150L372.5 131L355.6 162.5Z" fill="#9BCECE" stroke="white" stroke-width="2" stroke-miterlimit="10" stroke-linecap="round" stroke-linejoin="round"/>
<path d="M355.6 162.5L372.4 131L313.6 108.1V151.2C327.5 154.1 341.9 157.8 355.6 162.5Z" fill="#9BCECE" stroke="white" stroke-width="2" stroke-miterlimit="10" stroke-linecap="round" stroke-linejoin="round"/>
<path d="M313.7 151.3V108.2L284.8 97V146.3C293.8 147.5 303.6 149.2 313.7 151.3Z" fill="#9BCECE" stroke="white" stroke-width="2" stroke-miterlimit="10" stroke-linecap="round" stroke-linejoin="round"/>
<path d="M284.799 146.3V96.9998L245.199 81.5999V142.2C251.499 142.5 266.299 143.6 284.799 146.3Z" fill="#9BCECE" stroke="white" stroke-width="2" stroke-miterlimit="10" stroke-linecap="round" stroke-linejoin="round"/>
<path d="M245.199 142.1V81.5L219.499 71.5V96.1H182.199V144.5C182.199 144.5 226.699 140.9 245.199 142.1Z" fill="#9BCECE" stroke="white" stroke-width="2" stroke-miterlimit="10" stroke-linecap="round" stroke-linejoin="round"/>
<path d="M552.1 216.9L559.8 204L508.3 184L486.1 224.8C505.6 227.4 528.2 226.3 552.1 216.9Z" fill="#9BCECE" stroke="white" stroke-width="2" stroke-miterlimit="10" stroke-linecap="round" stroke-linejoin="round"/>
<path d="M486.1 224.7L508.3 183.9L475.7 171.2L451.6 215.5C461.3 219.4 473 222.9 486.1 224.7Z" fill="#9BCECE" stroke="white" stroke-width="2" stroke-miterlimit="10" stroke-linecap="round" stroke-linejoin="round"/>
<path d="M420.6 199C420.6 199 432.3 208 451.6 215.5L475.7 171.2L443.7 158.7L420.6 199Z" fill="#9BCECE" stroke="white" stroke-width="2" stroke-miterlimit="10" stroke-linecap="round" stroke-linejoin="round"/>
<path d="M444 457.4L512.3 484.4L527.4 459.8L438.3 426.1C441.9 445.1 444 457.4 444 457.4Z" fill="#9BCECE" stroke="white" stroke-width="2" stroke-miterlimit="10" stroke-linecap="round" stroke-linejoin="round"/>
<path d="M593 249.9L587 262.9C587 262.9 563.4 262.2 550 262.4C548.8 262.4 547.6 262.5 546.4 262.6C534.1 263.6 521.1 268.4 508.7 271.2C495.2 274.3 483 274.5 465 274.5C455.9 274.5 448 279.6 442.1 290.3C435.2 302.7 430.8 322.5 429.9 350.7C429.6 360.9 429.7 372.2 430.4 384.6C430.4 384.8 430.5 385 430.5 385.1C433.5 400.4 436.2 414.4 438.4 425.9L527.5 459.6L546.4 428.9L563.5 401.1L595.9 348.4L643.3 271.2L593 249.9Z" fill="#9BCECE" stroke="white" stroke-width="2" stroke-miterlimit="10" stroke-linecap="round" stroke-linejoin="round"/>
<path d="M100.7 454.8L100.6 470.4V518.7L121.4 518V446C113.7 447 105.6 449.4 100.7 454.8Z" fill="#9BCECE" stroke="white" stroke-width="2" stroke-miterlimit="10" stroke-linecap="round" stroke-linejoin="round"/>
<path d="M366.999 475.9L322.399 476.5V540.3L449.699 588L507.399 492.5L440.399 465.5C440.299 465.5 412.999 489.9 366.999 475.9Z" fill="#9BCECE" stroke="white" stroke-width="2" stroke-miterlimit="10" stroke-linecap="round" stroke-linejoin="round"/>
<path d="M178.299 482.4V446.5H162.399V470.2H142.199V446.5C142.199 446.5 132.099 444.9 121.399 446.2V518.2L220.499 515V482.5H178.299V482.4Z" fill="#9BCECE" stroke="white" stroke-width="2" stroke-miterlimit="10" stroke-linecap="round" stroke-linejoin="round"/>
<path d="M220.5 449.2V482.4V514.9L253 513.9L264.2 518.1V449.5C249.9 450.3 235.1 450.4 220.5 449.2Z" fill="#9BCECE" stroke="white" stroke-width="2" stroke-miterlimit="10" stroke-linecap="round" stroke-linejoin="round"/>
<path d="M295.699 475.9L294.599 446.6C284.999 447.8 274.799 448.9 264.199 449.5V518L321.899 538.9V476.3C309.499 476.1 295.299 476.1 295.699 475.9Z" fill="#9BCECE" stroke="white" stroke-width="2" stroke-miterlimit="10" stroke-linecap="round" stroke-linejoin="round"/>
<path d="M208.199 367.8V417.8C225.099 417.8 241.999 417.8 256.899 417.8V367.8H208.199Z" fill="#9BCECE" stroke="white" stroke-width="2" stroke-miterlimit="10" stroke-linecap="round" stroke-linejoin="round"/>
<path d="M257.8 262.9V276.7H323.6C323.6 276.7 324.3 258.2 326.7 239.2H257.8V262.9Z" fill="#9BCECE" stroke="white" stroke-width="2" stroke-miterlimit="10" stroke-linecap="round" stroke-linejoin="round"/>
<path d="M257 336.9V367.8H338.1C333.1 344.1 327.4 315.4 327.4 315.4H284.4V336.9H257Z" fill="#9BCECE" stroke="white" stroke-width="2" stroke-miterlimit="10" stroke-linecap="round" stroke-linejoin="round"/>
<path d="M104.399 417.9C104.399 417.9 126.999 417.9 157.299 417.9V367.9H121.499H104.399V417.9V417.9Z" fill="#9BCECE" stroke="white" stroke-width="2" stroke-miterlimit="10" stroke-linecap="round" stroke-linejoin="round"/>
<path d="M257 417.9C280.6 417.9 299.5 417.9 306.5 417.9C331.5 417.9 348.3 411.2 344 394.3C342.6 388.9 340.4 378.9 338.1 367.9H257V417.9Z" fill="#9BCECE" stroke="white" stroke-width="2" stroke-miterlimit="10" stroke-linecap="round" stroke-linejoin="round"/>
<path d="M190.199 291.5V271.4H181.799V263V170.2C149.699 175.2 134.399 178.6 121.399 178.6V367.9H157.199H208.199H256.999V337V291.6H190.199V291.5Z" fill="#9BCECE" stroke="white" stroke-width="2" stroke-miterlimit="10" stroke-linecap="round" stroke-linejoin="round"/>
<path d="M257 291.5V336.9H284.3V315.4V291.5H257Z" fill="#9BCECE" stroke="white" stroke-width="2" stroke-miterlimit="10" stroke-linecap="round" stroke-linejoin="round"/>
<path d="M257 292.7V335.7" stroke="#B3DADA" stroke-width="2" stroke-miterlimit="10" stroke-linejoin="round"/>
<path d="M257.8 262.9V239.2V168.8C249.7 168.2 241.2 167.7 232.5 167.5V262.9H257.8Z" fill="#9BCECE" stroke="white" stroke-width="2" stroke-miterlimit="10" stroke-linecap="round" stroke-linejoin="round"/>
<path d="M326.799 239.2C328.499 225.9 331.099 212.3 334.999 204.7C344.299 186.3 321.899 177.1 305.999 174.5C298.299 173.3 279.999 170.5 257.899 168.8V239.2H326.799V239.2Z" fill="#9BCECE" stroke="white" stroke-width="2" stroke-miterlimit="10" stroke-linecap="round" stroke-linejoin="round"/>
<path d="M157.3 367.8V417.8C173 417.8 190.7 417.8 208.3 417.8V367.8H157.3Z" fill="#9BCECE" stroke="white" stroke-width="2" stroke-miterlimit="10" stroke-linecap="round" stroke-linejoin="round"/>
<path d="M232.499 262.9V167.5C215.399 167.1 197.699 167.6 181.899 170.1V262.9H232.499Z" fill="#9BCECE" stroke="white" stroke-width="2" stroke-miterlimit="10" stroke-linecap="round" stroke-linejoin="round"/>
<path d="M451.2 249.9H390.1V261.6H451.2V249.9Z" fill="#9BCECE" stroke="white" stroke-width="2" stroke-miterlimit="10" stroke-linecap="round" stroke-linejoin="round"/>
<path d="M369.4 465.5L370 462.7L353.3 435.2C353.3 435.2 328.3 442.2 294.6 446.6L295.7 475.9H323V465.5H369.4Z" fill="#9BCECE" stroke="white" stroke-width="2" stroke-miterlimit="10" stroke-linecap="round" stroke-linejoin="round"/>
<path d="M32.2002 172.6C41.8652 172.6 49.7002 164.765 49.7002 155.1C49.7002 145.435 41.8652 137.6 32.2002 137.6C22.5352 137.6 14.7002 145.435 14.7002 155.1C14.7002 164.765 22.5352 172.6 32.2002 172.6Z" fill="#A72244"/>
<path d="M30.8006 156.2C27.4006 156.7 24.8006 159.5 24.6006 163H27.3006C27.4006 160.9 28.9006 159.2 30.8006 158.7V163.6H33.5006V158.7C35.4006 159.2 36.9006 160.9 37.0006 163H39.7006C39.5006 159.5 36.9006 156.7 33.5006 156.2V154C36.9006 153.5 39.5006 150.7 39.7006 147.2H37.0006C36.9006 149.3 35.4006 151 33.5006 151.5V146.6H30.8006V151.5C28.8006 151 27.4006 149.3 27.3006 147.2H24.6006C24.8006 150.6 27.4006 153.5 30.8006 154V156.2Z" fill="white"/>
<path d="M450.2 458.6L403.9 431.1L431.4 477.5L450.2 458.6Z" fill="#F15A29"/>
<path d="M441 496.8C456.906 496.8 469.8 483.906 469.8 468C469.8 452.094 456.906 439.2 441 439.2C425.094 439.2 412.2 452.094 412.2 468C412.2 483.906 425.094 496.8 441 496.8Z" fill="#F15A29" stroke="white" stroke-width="2" stroke-miterlimit="10"/>
<path d="M441 489.7C452.984 489.7 462.7 479.985 462.7 468C462.7 456.016 452.984 446.3 441 446.3C429.015 446.3 419.3 456.016 419.3 468C419.3 479.985 429.015 489.7 441 489.7Z" fill="white"/>
<path d="M444.601 462.2L440.401 477C440.201 477.8 440.101 478.4 440.101 478.7C440.101 478.9 440.201 479 440.301 479.1C440.401 479.2 440.601 479.3 440.701 479.3C440.901 479.3 441.201 479.2 441.401 479C442.001 478.5 442.801 477.6 443.601 476.2L444.301 476.6C442.201 480.2 440.001 482.1 437.601 482.1C436.701 482.1 436.001 481.9 435.401 481.3C434.901 480.8 434.601 480.2 434.601 479.4C434.601 478.9 434.701 478.2 434.901 477.4L437.801 467.5C438.101 466.5 438.201 465.8 438.201 465.3C438.201 465 438.101 464.7 437.801 464.5C437.501 464.3 437.201 464.2 436.701 464.2C436.501 464.2 436.201 464.2 435.901 464.2L436.201 463.4L443.201 462.3H444.601V462.2ZM443.301 452.7C444.201 452.7 444.901 453 445.501 453.6C446.101 454.2 446.401 454.9 446.401 455.8C446.401 456.6 446.101 457.4 445.501 458C444.901 458.6 444.201 458.9 443.301 458.9C442.501 458.9 441.801 458.6 441.201 458C440.601 457.4 440.301 456.7 440.301 455.8C440.301 455 440.601 454.2 441.201 453.6C441.701 453 442.501 452.7 443.301 452.7Z" fill="#F15A29"/>
</svg>
