<svg width="647" height="591" viewBox="0 0 647 591" fill="none" xmlns="http://www.w3.org/2000/svg">
<path d="M252.801 514.8L99.7008 519.8V471.5H1.80078V416.9H99.7008V177.5H29.5008V132.9H99.7008V23.7L608.401 221.9L594.301 249.4L644.601 270.9L450.101 589.2L252.801 514.8Z" fill="#FFF3E5"/>
<path d="M100.7 25.2L607 222.4L593 249.9L643.2 271.3L449.7 588L253 513.8L100.7 518.7V470.4H2.90039V417.8H100.7V176.5H30.5004V133.9H100.7V25.2ZM98.7004 22.3V25.2V131.9H30.5004H28.5004V133.9V176.5V178.5H30.5004H98.7004V415.9H2.90039H0.900391V417.9V470.5V472.5H2.90039H98.7004V518.8V520.9L100.8 520.8L252.7 515.9L449 589.9L450.5 590.5L451.4 589.1L644.9 272.5L646.1 270.5L644 269.6L595.8 249L608.9 223.4L609.9 221.4L607.8 220.6L101.4 23.3L98.7004 22.3Z" fill="white"/>
<path d="M121.5 178.5H105.5V224.5H121.5V178.5Z" fill="#C6C4B7"/>
<path d="M283.901 282.2H190.301V291.5H283.901V282.2Z" fill="#C6C4B7"/>
<path d="M512.401 251.2H451.301V260.3H512.401V251.2Z" fill="#C6C4B7"/>
<path d="M292.301 417.8H238.601V429.1H292.301V417.8Z" fill="#C6C4B7"/>
<path d="M400.501 399.6L397.001 416.6L388.601 414.9C383.901 413.9 379.301 417 378.401 421.7C377.401 426.4 380.501 431 385.201 431.9L393.601 433.6L397.601 434.4L406.101 436.2L407.901 427.7L413.101 402.2L400.501 399.6Z" fill="#C6C4B7"/>
<path d="M370 465.5H323V475.9H370V465.5Z" fill="#C6C4B7"/>
<path d="M188.499 59.3999L100.699 25.2V78.3999H188.499V59.3999Z" fill="#9BCECE" stroke="white" stroke-width="2" stroke-miterlimit="10" stroke-linecap="round" stroke-linejoin="round"/>
<path d="M182.2 96.0999H120.5V125.7L182.2 144.5V96.0999Z" fill="#9BCECE" stroke="white" stroke-width="2" stroke-miterlimit="10" stroke-linecap="round" stroke-linejoin="round"/>
<path d="M355.6 162.5C372.4 168.3 388.2 175.6 400.6 185L421.1 150L372.5 131L355.6 162.5Z" fill="#9BCECE" stroke="white" stroke-width="2" stroke-miterlimit="10" stroke-linecap="round" stroke-linejoin="round"/>
<path d="M355.6 162.5L372.4 131L313.6 108.1V151.2C327.5 154.1 341.9 157.8 355.6 162.5Z" fill="#9BCECE" stroke="white" stroke-width="2" stroke-miterlimit="10" stroke-linecap="round" stroke-linejoin="round"/>
<path d="M313.7 151.3V108.2L284.8 97V146.3C293.8 147.5 303.6 149.2 313.7 151.3Z" fill="#9BCECE" stroke="white" stroke-width="2" stroke-miterlimit="10" stroke-linecap="round" stroke-linejoin="round"/>
<path d="M284.799 146.3V96.9998L245.199 81.5999V142.2C251.499 142.5 266.299 143.6 284.799 146.3Z" fill="#9BCECE" stroke="white" stroke-width="2" stroke-miterlimit="10" stroke-linecap="round" stroke-linejoin="round"/>
<path d="M245.199 142.1V81.5L219.499 71.5V96.1H182.199V144.5C182.199 144.5 226.699 140.9 245.199 142.1Z" fill="#9BCECE" stroke="white" stroke-width="2" stroke-miterlimit="10" stroke-linecap="round" stroke-linejoin="round"/>
<path d="M552.1 216.9L559.8 204L508.3 184L486.1 224.8C505.6 227.4 528.2 226.3 552.1 216.9Z" fill="#9BCECE" stroke="white" stroke-width="2" stroke-miterlimit="10" stroke-linecap="round" stroke-linejoin="round"/>
<path d="M486.1 224.7L508.3 183.9L475.7 171.2L451.6 215.5C461.3 219.4 473 222.9 486.1 224.7Z" fill="#9BCECE" stroke="white" stroke-width="2" stroke-miterlimit="10" stroke-linecap="round" stroke-linejoin="round"/>
<path d="M420.6 199C420.6 199 432.3 208 451.6 215.5L475.7 171.2L443.7 158.7L420.6 199Z" fill="#9BCECE" stroke="white" stroke-width="2" stroke-miterlimit="10" stroke-linecap="round" stroke-linejoin="round"/>
<path d="M444 457.4L512.3 484.4L527.4 459.8L438.3 426.1C441.9 445.1 444 457.4 444 457.4Z" fill="#9BCECE" stroke="white" stroke-width="2" stroke-miterlimit="10" stroke-linecap="round" stroke-linejoin="round"/>
<path d="M593 249.9L587 262.9C587 262.9 563.4 262.2 550 262.4C548.8 262.4 547.6 262.5 546.4 262.6C534.1 263.6 521.1 268.4 508.7 271.2C495.2 274.3 483 274.5 465 274.5C455.9 274.5 448 279.6 442.1 290.3C435.2 302.7 430.8 322.5 429.9 350.7C429.6 360.9 429.7 372.2 430.4 384.6C430.4 384.8 430.5 385 430.5 385.1C433.5 400.4 436.2 414.4 438.4 425.9L527.5 459.6L546.4 428.9L563.5 401.1L595.9 348.4L643.3 271.2L593 249.9Z" fill="#9BCECE" stroke="white" stroke-width="2" stroke-miterlimit="10" stroke-linecap="round" stroke-linejoin="round"/>
<path d="M100.7 454.8L100.6 470.4V518.7L121.4 518V446C113.7 447 105.6 449.4 100.7 454.8Z" fill="#9BCECE" stroke="white" stroke-width="2" stroke-miterlimit="10" stroke-linecap="round" stroke-linejoin="round"/>
<path d="M366.999 475.9L322.399 476.5V540.3L449.699 588L507.399 492.5L440.399 465.5C440.299 465.5 412.999 489.9 366.999 475.9Z" fill="#9BCECE" stroke="white" stroke-width="2" stroke-miterlimit="10" stroke-linecap="round" stroke-linejoin="round"/>
<path d="M178.299 482.4V446.5H162.399V470.2H142.199V446.5C142.199 446.5 132.099 444.9 121.399 446.2V518.2L220.499 515V482.5H178.299V482.4Z" fill="#9BCECE" stroke="white" stroke-width="2" stroke-miterlimit="10" stroke-linecap="round" stroke-linejoin="round"/>
<path d="M220.5 449.2V482.4V514.9L253 513.9L264.2 518.1V449.5C249.9 450.3 235.1 450.4 220.5 449.2Z" fill="#9BCECE" stroke="white" stroke-width="2" stroke-miterlimit="10" stroke-linecap="round" stroke-linejoin="round"/>
<path d="M295.699 475.9L294.599 446.6C284.999 447.8 274.799 448.9 264.199 449.5V518L321.899 538.9V476.3C309.499 476.1 295.299 476.1 295.699 475.9Z" fill="#9BCECE" stroke="white" stroke-width="2" stroke-miterlimit="10" stroke-linecap="round" stroke-linejoin="round"/>
<path d="M208.199 367.8V417.8C225.099 417.8 241.999 417.8 256.899 417.8V367.8H208.199Z" fill="#9BCECE" stroke="white" stroke-width="2" stroke-miterlimit="10" stroke-linecap="round" stroke-linejoin="round"/>
<path d="M257.8 262.9V276.7H323.6C323.6 276.7 324.3 258.2 326.7 239.2H257.8V262.9Z" fill="#9BCECE" stroke="white" stroke-width="2" stroke-miterlimit="10" stroke-linecap="round" stroke-linejoin="round"/>
<path d="M257 336.9V367.8H338.1C333.1 344.1 327.4 315.4 327.4 315.4H284.4V336.9H257Z" fill="#9BCECE" stroke="white" stroke-width="2" stroke-miterlimit="10" stroke-linecap="round" stroke-linejoin="round"/>
<path d="M104.399 417.9C104.399 417.9 126.999 417.9 157.299 417.9V367.9H121.499H104.399V417.9V417.9Z" fill="#9BCECE" stroke="white" stroke-width="2" stroke-miterlimit="10" stroke-linecap="round" stroke-linejoin="round"/>
<path d="M257 417.9C280.6 417.9 299.5 417.9 306.5 417.9C331.5 417.9 348.3 411.2 344 394.3C342.6 388.9 340.4 378.9 338.1 367.9H257V417.9Z" fill="#9BCECE" stroke="white" stroke-width="2" stroke-miterlimit="10" stroke-linecap="round" stroke-linejoin="round"/>
<path d="M190.199 291.5V271.4H181.799V263V170.2C149.699 175.2 134.399 178.6 121.399 178.6V367.9H157.199H208.199H256.999V337V291.6H190.199V291.5Z" fill="#9BCECE" stroke="white" stroke-width="2" stroke-miterlimit="10" stroke-linecap="round" stroke-linejoin="round"/>
<path d="M257 291.5V336.9H284.3V315.4V291.5H257Z" fill="#9BCECE" stroke="white" stroke-width="2" stroke-miterlimit="10" stroke-linecap="round" stroke-linejoin="round"/>
<path d="M257 292.7V335.7" stroke="#B3DADA" stroke-width="2" stroke-miterlimit="10" stroke-linejoin="round"/>
<path d="M257.8 262.9V239.2V168.8C249.7 168.2 241.2 167.7 232.5 167.5V262.9H257.8Z" fill="#9BCECE" stroke="white" stroke-width="2" stroke-miterlimit="10" stroke-linecap="round" stroke-linejoin="round"/>
<path d="M326.799 239.2C328.499 225.9 331.099 212.3 334.999 204.7C344.299 186.3 321.899 177.1 305.999 174.5C298.299 173.3 279.999 170.5 257.899 168.8V239.2H326.799V239.2Z" fill="#9BCECE" stroke="white" stroke-width="2" stroke-miterlimit="10" stroke-linecap="round" stroke-linejoin="round"/>
<path d="M157.3 367.8V417.8C173 417.8 190.7 417.8 208.3 417.8V367.8H157.3Z" fill="#9BCECE" stroke="white" stroke-width="2" stroke-miterlimit="10" stroke-linecap="round" stroke-linejoin="round"/>
<path d="M232.499 262.9V167.5C215.399 167.1 197.699 167.6 181.899 170.1V262.9H232.499Z" fill="#9BCECE" stroke="white" stroke-width="2" stroke-miterlimit="10" stroke-linecap="round" stroke-linejoin="round"/>
<path d="M451.2 249.9H390.1V261.6H451.2V249.9Z" fill="#9BCECE" stroke="white" stroke-width="2" stroke-miterlimit="10" stroke-linecap="round" stroke-linejoin="round"/>
<path d="M369.4 465.5L370 462.7L353.3 435.2C353.3 435.2 328.3 442.2 294.6 446.6L295.7 475.9H323V465.5H369.4Z" fill="#9BCECE" stroke="white" stroke-width="2" stroke-miterlimit="10" stroke-linecap="round" stroke-linejoin="round"/>
<path d="M200.4 25.3611L173 71.7611L219.3 44.2611L200.4 25.3611Z" fill="#0078E5"/>
<path d="M238.155 39.656C240.703 23.9554 230.041 9.16187 214.341 6.61376C198.64 4.06565 183.846 14.7279 181.298 30.4285C178.75 46.1291 189.412 60.9226 205.113 63.4707C220.814 66.0188 235.607 55.3566 238.155 39.656Z" fill="#0078E5" stroke="white" stroke-width="2" stroke-miterlimit="10"/>
<path d="M200.7 38.5609C202.523 38.5609 204 37.0835 204 35.2609C204 33.4384 202.523 31.9609 200.7 31.9609C198.878 31.9609 197.4 33.4384 197.4 35.2609C197.4 37.0835 198.878 38.5609 200.7 38.5609Z" fill="white"/>
<path d="M203.9 51.061H197.4V43.061C197.4 41.261 198.9 39.761 200.7 39.761C202.5 39.761 204 41.261 204 43.061L203.9 51.061Z" fill="white"/>
<path d="M209.7 36.161C211.523 36.161 213 34.6836 213 32.861C213 31.0385 211.523 29.561 209.7 29.561C207.878 29.561 206.4 31.0385 206.4 32.861C206.4 34.6836 207.878 36.161 209.7 36.161Z" fill="white"/>
<path d="M213 51.0609H206.5V40.7609C206.5 38.9609 208 37.4609 209.8 37.4609C211.6 37.4609 213.1 38.9609 213.1 40.7609L213 51.0609Z" fill="white"/>
<path d="M218.7 38.5609C220.523 38.5609 222 37.0835 222 35.2609C222 33.4384 220.523 31.9609 218.7 31.9609C216.878 31.9609 215.4 33.4384 215.4 35.2609C215.4 37.0835 216.878 38.5609 218.7 38.5609Z" fill="white"/>
<path d="M222 51.061H215.5V43.061C215.5 41.261 217 39.761 218.8 39.761C220.6 39.761 222.1 41.261 222.1 43.061L222 51.061Z" fill="white"/>
<path d="M208.6 24.961L203.2 19.061L197.7 24.961" stroke="white" stroke-width="0.9648" stroke-miterlimit="10" stroke-linecap="round" stroke-linejoin="round"/>
<path d="M222.001 19.061L216.501 24.961L211.101 19.061" stroke="white" stroke-width="0.9648" stroke-miterlimit="10" stroke-linecap="round" stroke-linejoin="round"/>
<path d="M32.2002 172.6C41.8652 172.6 49.7002 164.765 49.7002 155.1C49.7002 145.435 41.8652 137.6 32.2002 137.6C22.5352 137.6 14.7002 145.435 14.7002 155.1C14.7002 164.765 22.5352 172.6 32.2002 172.6Z" fill="#A72244"/>
<path d="M30.8006 156.2C27.4006 156.7 24.8006 159.5 24.6006 163H27.3006C27.4006 160.9 28.9006 159.2 30.8006 158.7V163.6H33.5006V158.7C35.4006 159.2 36.9006 160.9 37.0006 163H39.7006C39.5006 159.5 36.9006 156.7 33.5006 156.2V154C36.9006 153.5 39.5006 150.7 39.7006 147.2H37.0006C36.9006 149.3 35.4006 151 33.5006 151.5V146.6H30.8006V151.5C28.8006 151 27.4006 149.3 27.3006 147.2H24.6006C24.8006 150.6 27.4006 153.5 30.8006 154V156.2Z" fill="white"/>
<path d="M160.8 160.9L114.5 188.4L142 142L160.8 160.9Z" fill="#00BBF3"/>
<path d="M151.7 179.4C167.606 179.4 180.5 166.506 180.5 150.6C180.5 134.694 167.606 121.8 151.7 121.8C135.795 121.8 122.9 134.694 122.9 150.6C122.9 166.506 135.795 179.4 151.7 179.4Z" fill="#00BBF3" stroke="white" stroke-width="2" stroke-miterlimit="10"/>
<path d="M145.9 166.1H140.5C138.6 166.1 137.1 164.5 137.1 162.5C137.1 160.5 138.6 158.9 140.5 158.9H144.3L157 142.4C157.6 141.6 158.6 141.1 159.6 141.1H164.5C166.4 141.1 167.9 142.7 167.9 144.7C167.9 146.7 166.4 148.3 164.5 148.3H161.1L148.5 164.8C147.8 165.6 146.9 166.1 145.9 166.1Z" stroke="white" stroke-width="1.5436" stroke-miterlimit="10" stroke-linecap="round" stroke-linejoin="round"/>
<path d="M145.5 157.3V146.1C145.5 144.1 147 142.5 148.7 142.5C150.4 142.5 151.9 144.1 151.9 146.1V148.9" fill="white"/>
<path d="M148.7 140.4C150.136 140.4 151.3 139.236 151.3 137.8C151.3 136.364 150.136 135.2 148.7 135.2C147.264 135.2 146.1 136.364 146.1 137.8C146.1 139.236 147.264 140.4 148.7 140.4Z" fill="white"/>
<path d="M160.4 158.2H167.8V165.7" stroke="white" stroke-width="1.5436" stroke-miterlimit="10" stroke-linecap="round" stroke-linejoin="round"/>
<path d="M167.8 158.2L160 166.1" stroke="white" stroke-width="1.5436" stroke-miterlimit="10" stroke-linecap="round" stroke-linejoin="round"/>
<path d="M325.8 398.6L279.4 426.1L306.9 379.7L325.8 398.6Z" fill="#00BBF3"/>
<path d="M316.7 417.2C332.606 417.2 345.5 404.306 345.5 388.4C345.5 372.494 332.606 359.6 316.7 359.6C300.795 359.6 287.9 372.494 287.9 388.4C287.9 404.306 300.795 417.2 316.7 417.2Z" fill="#00BBF3" stroke="white" stroke-width="2" stroke-miterlimit="10"/>
<path d="M310.9 403.8H305.5C303.7 403.8 302.2 402.2 302.2 400.2C302.2 398.2 303.7 396.6 305.5 396.6H309.3L322 380C322.6 379.2 323.6 378.7 324.6 378.7H329.5C331.3 378.7 332.8 380.3 332.8 382.3C332.8 384.3 331.3 385.9 329.5 385.9H326.2L313.5 402.4C312.8 403.3 311.9 403.8 310.9 403.8Z" stroke="white" stroke-width="1.5436" stroke-miterlimit="10" stroke-linecap="round" stroke-linejoin="round"/>
<path d="M310.5 395V383.8C310.5 381.8 312 380.2 313.7 380.2C315.4 380.2 316.9 381.8 316.9 383.8V386.6" fill="white"/>
<path d="M313.701 378.1C315.137 378.1 316.301 376.936 316.301 375.5C316.301 374.064 315.137 372.9 313.701 372.9C312.265 372.9 311.101 374.064 311.101 375.5C311.101 376.936 312.265 378.1 313.701 378.1Z" fill="white"/>
<path d="M325.3 396H332.8V403.4" stroke="white" stroke-width="1.5436" stroke-miterlimit="10" stroke-linecap="round" stroke-linejoin="round"/>
<path d="M332.8 396L325 403.8" stroke="white" stroke-width="1.5436" stroke-miterlimit="10" stroke-linecap="round" stroke-linejoin="round"/>
<path d="M453.6 394.9L407.2 422.4L434.7 376L453.6 394.9Z" fill="#00BBF3"/>
<path d="M444.5 413.5C460.406 413.5 473.3 400.606 473.3 384.7C473.3 368.794 460.406 355.9 444.5 355.9C428.594 355.9 415.7 368.794 415.7 384.7C415.7 400.606 428.594 413.5 444.5 413.5Z" fill="#00BBF3" stroke="white" stroke-width="2" stroke-miterlimit="10"/>
<path d="M438.7 400.1H433.3C431.5 400.1 430 398.5 430 396.5C430 394.5 431.5 392.9 433.3 392.9H437.1L449.8 376.4C450.4 375.6 451.4 375.1 452.4 375.1H457.3C459.1 375.1 460.6 376.7 460.6 378.7C460.6 380.7 459.1 382.3 457.3 382.3H454L441.3 398.8C440.6 399.6 439.7 400.1 438.7 400.1Z" stroke="white" stroke-width="1.5436" stroke-miterlimit="10" stroke-linecap="round" stroke-linejoin="round"/>
<path d="M438.3 391.3V380.1C438.3 378.1 439.8 376.5 441.5 376.5C443.2 376.5 444.7 378.1 444.7 380.1V382.9" fill="white"/>
<path d="M441.5 374.4C442.936 374.4 444.1 373.236 444.1 371.8C444.1 370.364 442.936 369.2 441.5 369.2C440.064 369.2 438.9 370.364 438.9 371.8C438.9 373.236 440.064 374.4 441.5 374.4Z" fill="white"/>
<path d="M453.2 392.3H460.6V399.7" stroke="white" stroke-width="1.5436" stroke-miterlimit="10" stroke-linecap="round" stroke-linejoin="round"/>
<path d="M460.6 392.3L452.8 400.1" stroke="white" stroke-width="1.5436" stroke-miterlimit="10" stroke-linecap="round" stroke-linejoin="round"/>
<path d="M507.001 230L460.601 257.4L488.101 211.1L507.001 230Z" fill="#00BBF3"/>
<path d="M497.801 248.5C513.707 248.5 526.601 235.606 526.601 219.7C526.601 203.794 513.707 190.9 497.801 190.9C481.895 190.9 469.001 203.794 469.001 219.7C469.001 235.606 481.895 248.5 497.801 248.5Z" fill="#00BBF3" stroke="white" stroke-width="2" stroke-miterlimit="10"/>
<path d="M492.001 235.1H486.601C484.801 235.1 483.301 233.5 483.301 231.5C483.301 229.5 484.801 227.9 486.601 227.9H490.401L503.101 211.4C503.701 210.6 504.701 210.1 505.701 210.1H510.601C512.401 210.1 513.901 211.7 513.901 213.7C513.901 215.7 512.401 217.3 510.601 217.3H507.301L494.601 233.8C493.901 234.7 493.001 235.1 492.001 235.1Z" stroke="white" stroke-width="1.5436" stroke-miterlimit="10" stroke-linecap="round" stroke-linejoin="round"/>
<path d="M491.601 226.4V215.2C491.601 213.2 493.101 211.6 494.801 211.6C496.501 211.6 498.001 213.2 498.001 215.2V218" fill="white"/>
<path d="M494.801 209.5C496.237 209.5 497.401 208.336 497.401 206.9C497.401 205.464 496.237 204.3 494.801 204.3C493.365 204.3 492.201 205.464 492.201 206.9C492.201 208.336 493.365 209.5 494.801 209.5Z" fill="white"/>
<path d="M506.501 227.3H513.901V234.8" stroke="white" stroke-width="1.5436" stroke-miterlimit="10" stroke-linecap="round" stroke-linejoin="round"/>
<path d="M513.901 227.3L506.101 235.1" stroke="white" stroke-width="1.5436" stroke-miterlimit="10" stroke-linecap="round" stroke-linejoin="round"/>
<path d="M617.001 255.7L570.601 283.2L598.101 236.8L617.001 255.7Z" fill="#00BBF3"/>
<path d="M607.901 274.2C623.806 274.2 636.701 261.306 636.701 245.4C636.701 229.494 623.806 216.6 607.901 216.6C591.995 216.6 579.101 229.494 579.101 245.4C579.101 261.306 591.995 274.2 607.901 274.2Z" fill="#00BBF3" stroke="white" stroke-width="2" stroke-miterlimit="10"/>
<path d="M602.001 260.9H596.601C594.801 260.9 593.301 259.3 593.301 257.3C593.301 255.3 594.801 253.7 596.601 253.7H600.401L613.101 237.2C613.701 236.4 614.701 235.9 615.701 235.9H620.601C622.401 235.9 623.901 237.5 623.901 239.5C623.901 241.5 622.401 243.1 620.601 243.1H617.301L604.601 259.6C604.001 260.4 603.001 260.9 602.001 260.9Z" stroke="white" stroke-width="1.5436" stroke-miterlimit="10" stroke-linecap="round" stroke-linejoin="round"/>
<path d="M601.601 252.1V240.9C601.601 238.9 603.101 237.3 604.801 237.3C606.501 237.3 608.001 238.9 608.001 240.9V243.7" fill="white"/>
<path d="M604.901 235.2C606.337 235.2 607.501 234.036 607.501 232.6C607.501 231.164 606.337 230 604.901 230C603.465 230 602.301 231.164 602.301 232.6C602.301 234.036 603.465 235.2 604.901 235.2Z" fill="white"/>
<path d="M623.601 260.9H616.101V253.4" stroke="white" stroke-width="1.5436" stroke-miterlimit="10" stroke-linecap="round" stroke-linejoin="round"/>
<path d="M616.101 260.9L623.901 253.1" stroke="white" stroke-width="1.5436" stroke-miterlimit="10" stroke-linecap="round" stroke-linejoin="round"/>
<path d="M284.7 259.3L238.4 286.8L265.9 240.5L284.7 259.3Z" fill="#00BBF3"/>
<path d="M275.601 277.9C291.507 277.9 304.401 265.006 304.401 249.1C304.401 233.194 291.507 220.3 275.601 220.3C259.695 220.3 246.801 233.194 246.801 249.1C246.801 265.006 259.695 277.9 275.601 277.9Z" fill="#00BBF3" stroke="white" stroke-width="2" stroke-miterlimit="10"/>
<path d="M269.801 264.5H264.401C262.601 264.5 261.101 262.9 261.101 260.9C261.101 258.9 262.601 257.3 264.401 257.3H268.201L280.901 240.8C281.501 240 282.501 239.5 283.501 239.5H288.401C290.201 239.5 291.701 241.1 291.701 243.1C291.701 245.1 290.201 246.7 288.401 246.7H285.001L272.301 263.2C271.701 264 270.801 264.5 269.801 264.5Z" stroke="white" stroke-width="1.5436" stroke-miterlimit="10" stroke-linecap="round" stroke-linejoin="round"/>
<path d="M269.4 255.7V244.5C269.4 242.5 270.9 240.9 272.6 240.9C274.3 240.9 275.8 242.5 275.8 244.5V247.3" fill="white"/>
<path d="M272.701 238.9C274.137 238.9 275.301 237.736 275.301 236.3C275.301 234.864 274.137 233.7 272.701 233.7C271.265 233.7 270.101 234.864 270.101 236.3C270.101 237.736 271.265 238.9 272.701 238.9Z" fill="white"/>
<path d="M291.3 264.5H283.9V257.1" stroke="white" stroke-width="1.5436" stroke-miterlimit="10" stroke-linecap="round" stroke-linejoin="round"/>
<path d="M283.9 264.5L291.7 256.7" stroke="white" stroke-width="1.5436" stroke-miterlimit="10" stroke-linecap="round" stroke-linejoin="round"/>
<path d="M293.9 501.3L340.3 473.8L312.8 520.2L293.9 501.3Z" fill="#00BBF3"/>
<path d="M303 540.4C318.906 540.4 331.8 527.506 331.8 511.6C331.8 495.694 318.906 482.8 303 482.8C287.094 482.8 274.2 495.694 274.2 511.6C274.2 527.506 287.094 540.4 303 540.4Z" fill="#00BBF3" stroke="white" stroke-width="2" stroke-miterlimit="10"/>
<path d="M297.2 527H291.8C290 527 288.5 525.4 288.5 523.4C288.5 521.4 290 519.8 291.8 519.8H295.6L308.3 503.3C308.9 502.5 309.9 502 310.9 502H315.8C317.6 502 319.1 503.6 319.1 505.6C319.1 507.6 317.6 509.2 315.8 509.2H312.5L299.8 525.7C299.1 526.5 298.2 527 297.2 527Z" stroke="white" stroke-width="1.5436" stroke-miterlimit="10" stroke-linecap="round" stroke-linejoin="round"/>
<path d="M296.8 518.2V507C296.8 505 298.3 503.4 300 503.4C301.7 503.4 303.2 505 303.2 507V509.8" fill="white"/>
<path d="M300 501.4C301.436 501.4 302.6 500.236 302.6 498.8C302.6 497.364 301.436 496.2 300 496.2C298.564 496.2 297.4 497.364 297.4 498.8C297.4 500.236 298.564 501.4 300 501.4Z" fill="white"/>
<path d="M318.7 527H311.3V519.6" stroke="white" stroke-width="1.5436" stroke-miterlimit="10" stroke-linecap="round" stroke-linejoin="round"/>
<path d="M311.3 527L319.1 519.2" stroke="white" stroke-width="1.5436" stroke-miterlimit="10" stroke-linecap="round" stroke-linejoin="round"/>
<path d="M170.1 533.4L197.6 487L151.2 514.5L170.1 533.4Z" fill="#0078E5"/>
<path d="M160.8 553.2C176.706 553.2 189.6 540.306 189.6 524.4C189.6 508.494 176.706 495.6 160.8 495.6C144.894 495.6 132 508.494 132 524.4C132 540.306 144.894 553.2 160.8 553.2Z" fill="#0078E5" stroke="white" stroke-width="2" stroke-miterlimit="10"/>
<path d="M151.8 527.9C153.623 527.9 155.1 526.422 155.1 524.6C155.1 522.777 153.623 521.3 151.8 521.3C149.977 521.3 148.5 522.777 148.5 524.6C148.5 526.422 149.977 527.9 151.8 527.9Z" fill="white"/>
<path d="M155 540.4H148.5V532.4C148.5 530.6 150 529.1 151.8 529.1C153.6 529.1 155.1 530.6 155.1 532.4L155 540.4Z" fill="white"/>
<path d="M160.8 525.5C162.623 525.5 164.1 524.022 164.1 522.2C164.1 520.377 162.623 518.9 160.8 518.9C158.977 518.9 157.5 520.377 157.5 522.2C157.5 524.022 158.977 525.5 160.8 525.5Z" fill="white"/>
<path d="M164.1 540.4H157.6V530.1C157.6 528.3 159.1 526.8 160.9 526.8C162.7 526.8 164.2 528.3 164.2 530.1L164.1 540.4Z" fill="white"/>
<path d="M169.8 527.9C171.623 527.9 173.1 526.422 173.1 524.6C173.1 522.777 171.623 521.3 169.8 521.3C167.977 521.3 166.5 522.777 166.5 524.6C166.5 526.422 167.977 527.9 169.8 527.9Z" fill="white"/>
<path d="M173.1 540.4H166.6V532.4C166.6 530.6 168.1 529.1 169.9 529.1C171.7 529.1 173.2 530.6 173.2 532.4L173.1 540.4Z" fill="white"/>
<path d="M159.7 514.3L154.3 508.4L148.8 514.3" stroke="white" stroke-width="0.9648" stroke-miterlimit="10" stroke-linecap="round" stroke-linejoin="round"/>
<path d="M173.1 508.4L167.6 514.3L162.2 508.4" stroke="white" stroke-width="0.9648" stroke-miterlimit="10" stroke-linecap="round" stroke-linejoin="round"/>
<path d="M450.2 458.6L403.9 431.1L431.4 477.5L450.2 458.6Z" fill="#F15A29"/>
<path d="M441 496.8C456.906 496.8 469.8 483.906 469.8 468C469.8 452.094 456.906 439.2 441 439.2C425.094 439.2 412.2 452.094 412.2 468C412.2 483.906 425.094 496.8 441 496.8Z" fill="#F15A29" stroke="white" stroke-width="2" stroke-miterlimit="10"/>
<path d="M441 489.7C452.984 489.7 462.7 479.985 462.7 468C462.7 456.016 452.984 446.3 441 446.3C429.015 446.3 419.3 456.016 419.3 468C419.3 479.985 429.015 489.7 441 489.7Z" fill="white"/>
<path d="M444.601 462.2L440.401 477C440.201 477.8 440.101 478.4 440.101 478.7C440.101 478.9 440.201 479 440.301 479.1C440.401 479.2 440.601 479.3 440.701 479.3C440.901 479.3 441.201 479.2 441.401 479C442.001 478.5 442.801 477.6 443.601 476.2L444.301 476.6C442.201 480.2 440.001 482.1 437.601 482.1C436.701 482.1 436.001 481.9 435.401 481.3C434.901 480.8 434.601 480.2 434.601 479.4C434.601 478.9 434.701 478.2 434.901 477.4L437.801 467.5C438.101 466.5 438.201 465.8 438.201 465.3C438.201 465 438.101 464.7 437.801 464.5C437.501 464.3 437.201 464.2 436.701 464.2C436.501 464.2 436.201 464.2 435.901 464.2L436.201 463.4L443.201 462.3H444.601V462.2ZM443.301 452.7C444.201 452.7 444.901 453 445.501 453.6C446.101 454.2 446.401 454.9 446.401 455.8C446.401 456.6 446.101 457.4 445.501 458C444.901 458.6 444.201 458.9 443.301 458.9C442.501 458.9 441.801 458.6 441.201 458C440.601 457.4 440.301 456.7 440.301 455.8C440.301 455 440.601 454.2 441.201 453.6C441.701 453 442.501 452.7 443.301 452.7Z" fill="#F15A29"/>
</svg>
