<svg width="68" height="68" viewBox="0 0 68 68" fill="none" xmlns="http://www.w3.org/2000/svg">
<path d="M46.4 40.0001L0 67.5001L27.5 21.1001L46.4 40.0001Z" fill="#EC4A41"/>
<path d="M37.3 58.6C53.2058 58.6 66.1 45.7058 66.1 29.8C66.1 13.8942 53.2058 1 37.3 1C21.3942 1 8.5 13.8942 8.5 29.8C8.5 45.7058 21.3942 58.6 37.3 58.6Z" fill="#EC4A41" stroke="white" stroke-width="2" stroke-miterlimit="10"/>
<path d="M32.496 13.4H41.424L39.936 35.336H33.984L32.496 13.4ZM36.96 47.384C35.648 47.384 34.544 46.968 33.648 46.136C32.784 45.272 32.352 44.232 32.352 43.016C32.352 41.8 32.784 40.792 33.648 39.992C34.512 39.16 35.616 38.744 36.96 38.744C38.304 38.744 39.408 39.16 40.272 39.992C41.136 40.792 41.568 41.8 41.568 43.016C41.568 44.232 41.12 45.272 40.224 46.136C39.36 46.968 38.272 47.384 36.96 47.384Z" fill="white"/>
</svg>
