<svg width="68" height="67" viewBox="0 0 68 67" fill="none" xmlns="http://www.w3.org/2000/svg">
<path d="M47.2004 27.6001L0.900391 0.100098L28.4004 46.5001L47.2004 27.6001Z" fill="#F15A29"/>
<path d="M38.0002 65.8002C53.906 65.8002 66.8002 52.906 66.8002 37.0002C66.8002 21.0944 53.906 8.2002 38.0002 8.2002C22.0944 8.2002 9.2002 21.0944 9.2002 37.0002C9.2002 52.906 22.0944 65.8002 38.0002 65.8002Z" fill="#F15A29" stroke="white" stroke-width="2" stroke-miterlimit="10"/>
<path d="M37.9998 58.7003C49.9844 58.7003 59.6998 48.9849 59.6998 37.0003C59.6998 25.0157 49.9844 15.3003 37.9998 15.3003C26.0152 15.3003 16.2998 25.0157 16.2998 37.0003C16.2998 48.9849 26.0152 58.7003 37.9998 58.7003Z" fill="white"/>
<path d="M41.6006 31.2002L37.4006 46.0002C37.2006 46.8002 37.1006 47.4002 37.1006 47.7002C37.1006 47.9002 37.2006 48.0002 37.3006 48.1002C37.4006 48.2002 37.6006 48.3002 37.7006 48.3002C37.9006 48.3002 38.2006 48.2002 38.4006 48.0002C39.0006 47.5002 39.8006 46.6002 40.6006 45.2002L41.3006 45.6002C39.2006 49.2002 37.0006 51.1002 34.6006 51.1002C33.7006 51.1002 33.0006 50.9002 32.4006 50.3002C31.9006 49.8002 31.6006 49.2002 31.6006 48.4002C31.6006 47.9002 31.7006 47.2002 31.9006 46.4002L34.8006 36.5002C35.1006 35.5002 35.2006 34.8002 35.2006 34.3002C35.2006 34.0002 35.1006 33.7002 34.8006 33.5002C34.5006 33.3002 34.2006 33.2002 33.7006 33.2002C33.5006 33.2002 33.2006 33.2002 32.9006 33.2002L33.2006 32.4002L40.2006 31.3002H41.6006V31.2002ZM40.3006 21.7002C41.2006 21.7002 41.9006 22.0002 42.5006 22.6002C43.1006 23.2002 43.4006 23.9002 43.4006 24.8002C43.4006 25.6002 43.1006 26.4002 42.5006 27.0002C41.9006 27.6002 41.2006 27.9002 40.3006 27.9002C39.5006 27.9002 38.8006 27.6002 38.2006 27.0002C37.6006 26.4002 37.3006 25.7002 37.3006 24.8002C37.3006 24.0002 37.6006 23.2002 38.2006 22.6002C38.7006 22.0002 39.5006 21.7002 40.3006 21.7002Z" fill="#F15A29"/>
</svg>
