<svg width="647" height="569" viewBox="0 0 647 569" fill="none" xmlns="http://www.w3.org/2000/svg">
<path d="M252.801 492.8L99.7008 497.8V449.5H1.80078V394.9H99.7008V155.5H29.5008V110.9H99.7008V1.69995L608.401 199.9L594.301 227.4L644.601 248.9L450.101 567.2L252.801 492.8Z" fill="#FFF3E5"/>
<path d="M100.7 3.20004L607 200.4L593 227.9L643.2 249.3L449.7 566L253 491.8L100.7 496.7V448.4H2.90039V395.8H100.7V154.5H30.5004V111.9H100.7V3.20004ZM98.7004 0.300049V3.20004V109.9H30.5004H28.5004V111.9V154.5V156.5H30.5004H98.7004V393.9H2.90039H0.900391V395.9V448.5V450.5H2.90039H98.7004V496.8V498.9L100.8 498.8L252.7 493.9L449 567.9L450.5 568.5L451.4 567.1L644.9 250.5L646.1 248.5L644 247.6L595.8 227L608.9 201.4L609.9 199.4L607.8 198.6L101.4 1.30005L98.7004 0.300049Z" fill="white"/>
<path d="M121.5 156.5H105.5V202.5H121.5V156.5Z" fill="#C6C4B7"/>
<path d="M283.901 260.2H190.301V269.5H283.901V260.2Z" fill="#C6C4B7"/>
<path d="M512.401 229.2H451.301V238.3H512.401V229.2Z" fill="#C6C4B7"/>
<path d="M292.301 395.8H238.601V407.1H292.301V395.8Z" fill="#C6C4B7"/>
<path d="M400.501 377.6L397.001 394.6L388.601 392.9C383.901 391.9 379.301 395 378.401 399.7C377.401 404.4 380.501 409 385.201 409.9L393.601 411.6L397.601 412.4L406.101 414.2L407.901 405.7L413.101 380.2L400.501 377.6Z" fill="#C6C4B7"/>
<path d="M370 443.5H323V453.9H370V443.5Z" fill="#C6C4B7"/>
<circle cx="348" cy="236" r="16" transform="rotate(-90 348 236)" fill="black" fill-opacity="0.25"/>
<path d="M345 239C344.802 239 344.609 239.059 344.444 239.169C344.28 239.278 344.152 239.435 344.076 239.617C344 239.8 343.981 240.001 344.019 240.195C344.058 240.389 344.153 240.567 344.293 240.707C344.433 240.847 344.611 240.942 344.805 240.981C344.999 241.019 345.2 241 345.383 240.924C345.565 240.848 345.722 240.72 345.831 240.556C345.941 240.391 346 240.198 346 240C346 239.735 345.895 239.48 345.707 239.293C345.52 239.105 345.265 239 345 239ZM338 238C337.735 238 337.48 238.105 337.293 238.293C337.105 238.48 337 238.735 337 239V241C337 241.265 337.105 241.52 337.293 241.707C337.48 241.895 337.735 242 338 242C338.265 242 338.52 241.895 338.707 241.707C338.895 241.52 339 241.265 339 241V239C339 238.735 338.895 238.48 338.707 238.293C338.52 238.105 338.265 238 338 238ZM358 238C357.735 238 357.48 238.105 357.293 238.293C357.105 238.48 357 238.735 357 239V241C357 241.265 357.105 241.52 357.293 241.707C357.48 241.895 357.735 242 358 242C358.265 242 358.52 241.895 358.707 241.707C358.895 241.52 359 241.265 359 241V239C359 238.735 358.895 238.48 358.707 238.293C358.52 238.105 358.265 238 358 238ZM353 231H349V229.72C349.302 229.545 349.554 229.295 349.729 228.993C349.904 228.691 349.998 228.349 350 228C350 227.47 349.789 226.961 349.414 226.586C349.039 226.211 348.53 226 348 226C347.47 226 346.961 226.211 346.586 226.586C346.211 226.961 346 227.47 346 228C346.002 228.349 346.096 228.691 346.271 228.993C346.446 229.295 346.698 229.545 347 229.72V231H343C342.204 231 341.441 231.316 340.879 231.879C340.316 232.441 340 233.204 340 234V243C340 243.796 340.316 244.559 340.879 245.121C341.441 245.684 342.204 246 343 246H353C353.796 246 354.559 245.684 355.121 245.121C355.684 244.559 356 243.796 356 243V234C356 233.204 355.684 232.441 355.121 231.879C354.559 231.316 353.796 231 353 231ZM349.72 233L349.22 235H346.78L346.28 233H349.72ZM354 243C354 243.265 353.895 243.52 353.707 243.707C353.52 243.895 353.265 244 353 244H343C342.735 244 342.48 243.895 342.293 243.707C342.105 243.52 342 243.265 342 243V234C342 233.735 342.105 233.48 342.293 233.293C342.48 233.105 342.735 233 343 233H344.22L345 236.24C345.055 236.462 345.184 236.658 345.366 236.797C345.548 236.935 345.772 237.007 346 237H350C350.228 237.007 350.452 236.935 350.634 236.797C350.816 236.658 350.945 236.462 351 236.24L351.78 233H353C353.265 233 353.52 233.105 353.707 233.293C353.895 233.48 354 233.735 354 234V243ZM351 239C350.802 239 350.609 239.059 350.444 239.169C350.28 239.278 350.152 239.435 350.076 239.617C350 239.8 349.981 240.001 350.019 240.195C350.058 240.389 350.153 240.567 350.293 240.707C350.433 240.847 350.611 240.942 350.805 240.981C350.999 241.019 351.2 241 351.383 240.924C351.565 240.848 351.722 240.72 351.831 240.556C351.941 240.391 352 240.198 352 240C352 239.735 351.895 239.48 351.707 239.293C351.52 239.105 351.265 239 351 239Z" fill="#9B51E0"/>
<path d="M188.499 37.3999L100.699 3.19995V56.3999H188.499V37.3999Z" fill="#9BCECE" stroke="white" stroke-width="2" stroke-miterlimit="10" stroke-linecap="round" stroke-linejoin="round"/>
<path d="M182.2 74.0999H120.5V103.7L182.2 122.5V74.0999Z" fill="#9BCECE" stroke="white" stroke-width="2" stroke-miterlimit="10" stroke-linecap="round" stroke-linejoin="round"/>
<path d="M355.6 140.5C372.4 146.3 388.2 153.6 400.6 163L421.1 128L372.5 109L355.6 140.5Z" fill="#9BCECE" stroke="white" stroke-width="2" stroke-miterlimit="10" stroke-linecap="round" stroke-linejoin="round"/>
<path d="M355.6 140.5L372.4 109L313.6 86.0999V129.2C327.5 132.1 341.9 135.8 355.6 140.5Z" fill="#9BCECE" stroke="white" stroke-width="2" stroke-miterlimit="10" stroke-linecap="round" stroke-linejoin="round"/>
<path d="M313.7 129.3V86.2L284.8 75V124.3C293.8 125.5 303.6 127.2 313.7 129.3Z" fill="#9BCECE" stroke="white" stroke-width="2" stroke-miterlimit="10" stroke-linecap="round" stroke-linejoin="round"/>
<path d="M284.799 124.3V74.9998L245.199 59.5999V120.2C251.499 120.5 266.299 121.6 284.799 124.3Z" fill="#9BCECE" stroke="white" stroke-width="2" stroke-miterlimit="10" stroke-linecap="round" stroke-linejoin="round"/>
<path d="M245.199 120.1V59.5L219.499 49.5V74.1H182.199V122.5C182.199 122.5 226.699 118.9 245.199 120.1Z" fill="#9BCECE" stroke="white" stroke-width="2" stroke-miterlimit="10" stroke-linecap="round" stroke-linejoin="round"/>
<path d="M552.1 194.9L559.8 182L508.3 162L486.1 202.8C505.6 205.4 528.2 204.3 552.1 194.9Z" fill="#9BCECE" stroke="white" stroke-width="2" stroke-miterlimit="10" stroke-linecap="round" stroke-linejoin="round"/>
<path d="M486.1 202.7L508.3 161.9L475.7 149.2L451.6 193.5C461.3 197.4 473 200.9 486.1 202.7Z" fill="#9BCECE" stroke="white" stroke-width="2" stroke-miterlimit="10" stroke-linecap="round" stroke-linejoin="round"/>
<path d="M420.6 177C420.6 177 432.3 186 451.6 193.5L475.7 149.2L443.7 136.7L420.6 177Z" fill="#9BCECE" stroke="white" stroke-width="2" stroke-miterlimit="10" stroke-linecap="round" stroke-linejoin="round"/>
<path d="M444 435.4L512.3 462.4L527.4 437.8L438.3 404.1C441.9 423.1 444 435.4 444 435.4Z" fill="#9BCECE" stroke="white" stroke-width="2" stroke-miterlimit="10" stroke-linecap="round" stroke-linejoin="round"/>
<path d="M593 227.9L587 240.9C587 240.9 563.4 240.2 550 240.4C548.8 240.4 547.6 240.5 546.4 240.6C534.1 241.6 521.1 246.4 508.7 249.2C495.2 252.3 483 252.5 465 252.5C455.9 252.5 448 257.6 442.1 268.3C435.2 280.7 430.8 300.5 429.9 328.7C429.6 338.9 429.7 350.2 430.4 362.6C430.4 362.8 430.5 363 430.5 363.1C433.5 378.4 436.2 392.4 438.4 403.9L527.5 437.6L546.4 406.9L563.5 379.1L595.9 326.4L643.3 249.2L593 227.9Z" fill="#9BCECE" stroke="white" stroke-width="2" stroke-miterlimit="10" stroke-linecap="round" stroke-linejoin="round"/>
<path d="M100.7 432.8L100.6 448.4V496.7L121.4 496V424C113.7 425 105.6 427.4 100.7 432.8Z" fill="#9BCECE" stroke="white" stroke-width="2" stroke-miterlimit="10" stroke-linecap="round" stroke-linejoin="round"/>
<path d="M366.999 453.9L322.399 454.5V518.3L449.699 566L507.399 470.5L440.399 443.5C440.299 443.5 412.999 467.9 366.999 453.9Z" fill="#9BCECE" stroke="white" stroke-width="2" stroke-miterlimit="10" stroke-linecap="round" stroke-linejoin="round"/>
<path d="M178.299 460.4V424.5H162.399V448.2H142.199V424.5C142.199 424.5 132.099 422.9 121.399 424.2V496.2L220.499 493V460.5H178.299V460.4Z" fill="#9BCECE" stroke="white" stroke-width="2" stroke-miterlimit="10" stroke-linecap="round" stroke-linejoin="round"/>
<path d="M220.5 427.2V460.4V492.9L253 491.9L264.2 496.1V427.5C249.9 428.3 235.1 428.4 220.5 427.2Z" fill="#9BCECE" stroke="white" stroke-width="2" stroke-miterlimit="10" stroke-linecap="round" stroke-linejoin="round"/>
<path d="M295.699 453.9L294.599 424.6C284.999 425.8 274.799 426.9 264.199 427.5V496L321.899 516.9V454.3C309.499 454.1 295.299 454.1 295.699 453.9Z" fill="#9BCECE" stroke="white" stroke-width="2" stroke-miterlimit="10" stroke-linecap="round" stroke-linejoin="round"/>
<path d="M208.199 345.8V395.8C225.099 395.8 241.999 395.8 256.899 395.8V345.8H208.199Z" fill="#9BCECE" stroke="white" stroke-width="2" stroke-miterlimit="10" stroke-linecap="round" stroke-linejoin="round"/>
<path d="M257.8 240.9V254.7H323.6C323.6 254.7 324.3 236.2 326.7 217.2H257.8V240.9Z" fill="#9BCECE" stroke="white" stroke-width="2" stroke-miterlimit="10" stroke-linecap="round" stroke-linejoin="round"/>
<path d="M257 314.9V345.8H338.1C333.1 322.1 327.4 293.4 327.4 293.4H284.4V314.9H257Z" fill="#9BCECE" stroke="white" stroke-width="2" stroke-miterlimit="10" stroke-linecap="round" stroke-linejoin="round"/>
<path d="M104.399 395.9C104.399 395.9 126.999 395.9 157.299 395.9V345.9H121.499H104.399V395.9Z" fill="#9BCECE" stroke="white" stroke-width="2" stroke-miterlimit="10" stroke-linecap="round" stroke-linejoin="round"/>
<path d="M257 395.9C280.6 395.9 299.5 395.9 306.5 395.9C331.5 395.9 348.3 389.2 344 372.3C342.6 366.9 340.4 356.9 338.1 345.9H257V395.9Z" fill="#9BCECE" stroke="white" stroke-width="2" stroke-miterlimit="10" stroke-linecap="round" stroke-linejoin="round"/>
<path d="M190.199 269.5V249.4H181.799V241V148.2C149.699 153.2 134.399 156.6 121.399 156.6V345.9H157.199H208.199H256.999V315V269.6H190.199V269.5Z" fill="#9BCECE" stroke="white" stroke-width="2" stroke-miterlimit="10" stroke-linecap="round" stroke-linejoin="round"/>
<path d="M257 269.5V314.9H284.3V293.4V269.5H257Z" fill="#9BCECE" stroke="white" stroke-width="2" stroke-miterlimit="10" stroke-linecap="round" stroke-linejoin="round"/>
<path d="M257 270.7V313.7" stroke="#B3DADA" stroke-width="2" stroke-miterlimit="10" stroke-linejoin="round"/>
<path d="M257.8 240.9V217.2V146.8C249.7 146.2 241.2 145.7 232.5 145.5V240.9H257.8Z" fill="#9BCECE" stroke="white" stroke-width="2" stroke-miterlimit="10" stroke-linecap="round" stroke-linejoin="round"/>
<path d="M326.799 217.2C328.499 203.9 331.099 190.3 334.999 182.7C344.299 164.3 321.899 155.1 305.999 152.5C298.299 151.3 279.999 148.5 257.899 146.8V217.2H326.799Z" fill="#9BCECE" stroke="white" stroke-width="2" stroke-miterlimit="10" stroke-linecap="round" stroke-linejoin="round"/>
<path d="M157.3 345.8V395.8C173 395.8 190.7 395.8 208.3 395.8V345.8H157.3Z" fill="#9BCECE" stroke="white" stroke-width="2" stroke-miterlimit="10" stroke-linecap="round" stroke-linejoin="round"/>
<path d="M232.499 240.9V145.5C215.399 145.1 197.699 145.6 181.899 148.1V240.9H232.499Z" fill="#9BCECE" stroke="white" stroke-width="2" stroke-miterlimit="10" stroke-linecap="round" stroke-linejoin="round"/>
<path d="M451.2 227.9H390.1V239.6H451.2V227.9Z" fill="#9BCECE" stroke="white" stroke-width="2" stroke-miterlimit="10" stroke-linecap="round" stroke-linejoin="round"/>
<path d="M369.4 443.5L370 440.7L353.3 413.2C353.3 413.2 328.3 420.2 294.6 424.6L295.7 453.9H323V443.5H369.4Z" fill="#9BCECE" stroke="white" stroke-width="2" stroke-miterlimit="10" stroke-linecap="round" stroke-linejoin="round"/>
<path d="M32.2002 150.6C41.8652 150.6 49.7002 142.765 49.7002 133.1C49.7002 123.435 41.8652 115.6 32.2002 115.6C22.5352 115.6 14.7002 123.435 14.7002 133.1C14.7002 142.765 22.5352 150.6 32.2002 150.6Z" fill="#A72244"/>
<path d="M30.8006 134.2C27.4006 134.7 24.8006 137.5 24.6006 141H27.3006C27.4006 138.9 28.9006 137.2 30.8006 136.7V141.6H33.5006V136.7C35.4006 137.2 36.9006 138.9 37.0006 141H39.7006C39.5006 137.5 36.9006 134.7 33.5006 134.2V132C36.9006 131.5 39.5006 128.7 39.7006 125.2H37.0006C36.9006 127.3 35.4006 129 33.5006 129.5V124.6H30.8006V129.5C28.8006 129 27.4006 127.3 27.3006 125.2H24.6006C24.8006 128.6 27.4006 131.5 30.8006 132V134.2Z" fill="white"/>
</svg>
